<mxfile host="app.diagrams.net" modified="2022-04-17T04:44:20.051Z" agent="5.0 (X11; Linux x86_64) AppleWebKit/537.36 (KHTML, like Gecko) Chrome/99.0.4844.82 Safari/537.36" etag="pWHFdczX4fjGROvkJqBo" version="17.4.5" type="github">
  <diagram name="Page-1" id="13e1069c-82ec-6db2-03f1-153e76fe0fe0">
    <mxGraphModel dx="901" dy="484" grid="0" gridSize="10" guides="1" tooltips="1" connect="1" arrows="1" fold="1" page="1" pageScale="1" pageWidth="1100" pageHeight="850" background="none" math="0" shadow="0">
      <root>
        <mxCell id="0" />
        <mxCell id="1" parent="0" />
        <mxCell id="etY6F__iKvZbwLbChWvs-23" value=":商品信息页面" style="shape=umlLifeline;perimeter=lifelinePerimeter;whiteSpace=wrap;html=1;container=1;collapsible=0;recursiveResize=0;outlineConnect=0;rounded=1;shadow=0;comic=0;labelBackgroundColor=none;strokeWidth=1;fontFamily=Verdana;fontSize=12;align=center;" vertex="1" parent="1">
          <mxGeometry x="344" y="207" width="100" height="399" as="geometry" />
        </mxCell>
        <mxCell id="etY6F__iKvZbwLbChWvs-24" value="" style="html=1;points=[];perimeter=orthogonalPerimeter;rounded=0;shadow=0;comic=0;labelBackgroundColor=none;strokeWidth=1;fontFamily=Verdana;fontSize=12;align=center;" vertex="1" parent="etY6F__iKvZbwLbChWvs-23">
          <mxGeometry x="45" y="100" width="10" height="203" as="geometry" />
        </mxCell>
        <mxCell id="etY6F__iKvZbwLbChWvs-25" value=":审核员" style="shape=umlLifeline;perimeter=lifelinePerimeter;whiteSpace=wrap;html=1;container=1;collapsible=0;recursiveResize=0;outlineConnect=0;rounded=1;shadow=0;comic=0;labelBackgroundColor=none;strokeWidth=1;fontFamily=Verdana;fontSize=12;align=center;" vertex="1" parent="1">
          <mxGeometry x="504" y="207" width="100" height="270" as="geometry" />
        </mxCell>
        <mxCell id="etY6F__iKvZbwLbChWvs-26" value="" style="html=1;points=[];perimeter=orthogonalPerimeter;rounded=0;shadow=0;comic=0;labelBackgroundColor=none;strokeWidth=1;fontFamily=Verdana;fontSize=12;align=center;" vertex="1" parent="etY6F__iKvZbwLbChWvs-25">
          <mxGeometry x="45" y="129" width="10" height="141" as="geometry" />
        </mxCell>
        <mxCell id="etY6F__iKvZbwLbChWvs-27" value=":DataBase" style="shape=umlLifeline;perimeter=lifelinePerimeter;whiteSpace=wrap;html=1;container=1;collapsible=0;recursiveResize=0;outlineConnect=0;rounded=1;shadow=0;comic=0;labelBackgroundColor=none;strokeWidth=1;fontFamily=Verdana;fontSize=12;align=center;" vertex="1" parent="1">
          <mxGeometry x="644" y="207" width="100" height="398" as="geometry" />
        </mxCell>
        <mxCell id="etY6F__iKvZbwLbChWvs-28" value="" style="html=1;points=[];perimeter=orthogonalPerimeter;rounded=0;shadow=0;comic=0;labelBackgroundColor=none;strokeWidth=1;fontFamily=Verdana;fontSize=12;align=center;" vertex="1" parent="etY6F__iKvZbwLbChWvs-27">
          <mxGeometry x="45" y="110" width="10" height="252" as="geometry" />
        </mxCell>
        <mxCell id="etY6F__iKvZbwLbChWvs-29" style="edgeStyle=orthogonalEdgeStyle;rounded=0;orthogonalLoop=1;jettySize=auto;html=1;" edge="1" parent="etY6F__iKvZbwLbChWvs-27" source="etY6F__iKvZbwLbChWvs-28">
          <mxGeometry relative="1" as="geometry">
            <mxPoint x="55" y="297" as="targetPoint" />
            <Array as="points">
              <mxPoint x="100" y="200" />
              <mxPoint x="100" y="297" />
              <mxPoint x="55" y="297" />
            </Array>
          </mxGeometry>
        </mxCell>
        <mxCell id="etY6F__iKvZbwLbChWvs-30" value="商品信息&lt;br&gt;添加到&lt;br&gt;数据库" style="edgeLabel;html=1;align=center;verticalAlign=middle;resizable=0;points=[];" vertex="1" connectable="0" parent="etY6F__iKvZbwLbChWvs-29">
          <mxGeometry x="-0.2039" y="3" relative="1" as="geometry">
            <mxPoint x="-3" y="12" as="offset" />
          </mxGeometry>
        </mxCell>
        <mxCell id="etY6F__iKvZbwLbChWvs-31" value=":用户" style="shape=umlLifeline;perimeter=lifelinePerimeter;whiteSpace=wrap;html=1;container=1;collapsible=0;recursiveResize=0;outlineConnect=0;rounded=1;shadow=0;comic=0;labelBackgroundColor=none;strokeWidth=1;fontFamily=Verdana;fontSize=12;align=center;" vertex="1" parent="1">
          <mxGeometry x="204" y="207" width="100" height="395" as="geometry" />
        </mxCell>
        <mxCell id="etY6F__iKvZbwLbChWvs-32" value="" style="html=1;points=[];perimeter=orthogonalPerimeter;rounded=0;shadow=0;comic=0;labelBackgroundColor=none;strokeWidth=1;fontFamily=Verdana;fontSize=12;align=center;" vertex="1" parent="etY6F__iKvZbwLbChWvs-31">
          <mxGeometry x="45" y="100" width="10" height="260" as="geometry" />
        </mxCell>
        <mxCell id="etY6F__iKvZbwLbChWvs-33" value="填写商信息" style="html=1;verticalAlign=bottom;endArrow=block;entryX=0;entryY=0;labelBackgroundColor=none;fontFamily=Verdana;fontSize=12;edgeStyle=elbowEdgeStyle;elbow=vertical;" edge="1" parent="1" source="etY6F__iKvZbwLbChWvs-32" target="etY6F__iKvZbwLbChWvs-24">
          <mxGeometry relative="1" as="geometry">
            <mxPoint x="324" y="317" as="sourcePoint" />
          </mxGeometry>
        </mxCell>
        <mxCell id="etY6F__iKvZbwLbChWvs-34" value="卖家" style="shape=umlActor;verticalLabelPosition=bottom;verticalAlign=top;html=1;outlineConnect=0;" vertex="1" parent="1">
          <mxGeometry x="239" y="119" width="30" height="60" as="geometry" />
        </mxCell>
        <mxCell id="etY6F__iKvZbwLbChWvs-35" style="edgeStyle=orthogonalEdgeStyle;rounded=0;orthogonalLoop=1;jettySize=auto;html=1;entryX=-0.059;entryY=0.009;entryDx=0;entryDy=0;entryPerimeter=0;" edge="1" parent="1" source="etY6F__iKvZbwLbChWvs-24" target="etY6F__iKvZbwLbChWvs-26">
          <mxGeometry relative="1" as="geometry">
            <Array as="points">
              <mxPoint x="432" y="337" />
              <mxPoint x="432" y="337" />
            </Array>
          </mxGeometry>
        </mxCell>
        <mxCell id="etY6F__iKvZbwLbChWvs-36" value="待管理员审核" style="edgeLabel;html=1;align=center;verticalAlign=middle;resizable=0;points=[];" vertex="1" connectable="0" parent="etY6F__iKvZbwLbChWvs-35">
          <mxGeometry x="0.0769" y="1" relative="1" as="geometry">
            <mxPoint as="offset" />
          </mxGeometry>
        </mxCell>
        <mxCell id="etY6F__iKvZbwLbChWvs-37" style="edgeStyle=orthogonalEdgeStyle;rounded=0;orthogonalLoop=1;jettySize=auto;html=1;" edge="1" parent="1" source="etY6F__iKvZbwLbChWvs-26">
          <mxGeometry relative="1" as="geometry">
            <mxPoint x="687" y="381" as="targetPoint" />
            <Array as="points">
              <mxPoint x="590" y="381" />
              <mxPoint x="590" y="381" />
            </Array>
          </mxGeometry>
        </mxCell>
        <mxCell id="etY6F__iKvZbwLbChWvs-38" value="&amp;nbsp;审核通过" style="edgeLabel;html=1;align=center;verticalAlign=middle;resizable=0;points=[];" vertex="1" connectable="0" parent="etY6F__iKvZbwLbChWvs-37">
          <mxGeometry x="-0.2542" y="-1" relative="1" as="geometry">
            <mxPoint x="17" as="offset" />
          </mxGeometry>
        </mxCell>
        <mxCell id="etY6F__iKvZbwLbChWvs-39" style="edgeStyle=orthogonalEdgeStyle;rounded=0;orthogonalLoop=1;jettySize=auto;html=1;entryX=0.934;entryY=0.342;entryDx=0;entryDy=0;entryPerimeter=0;" edge="1" parent="1">
          <mxGeometry relative="1" as="geometry">
            <mxPoint x="549" y="381.3472413793104" as="sourcePoint" />
            <mxPoint x="398.3399999999999" y="381.01" as="targetPoint" />
            <Array as="points">
              <mxPoint x="442" y="381" />
              <mxPoint x="442" y="381" />
            </Array>
          </mxGeometry>
        </mxCell>
        <mxCell id="etY6F__iKvZbwLbChWvs-40" value="审核失败" style="edgeLabel;html=1;align=center;verticalAlign=middle;resizable=0;points=[];" vertex="1" connectable="0" parent="etY6F__iKvZbwLbChWvs-39">
          <mxGeometry x="-0.1775" y="2" relative="1" as="geometry">
            <mxPoint x="-6" y="-2" as="offset" />
          </mxGeometry>
        </mxCell>
        <mxCell id="etY6F__iKvZbwLbChWvs-41" style="edgeStyle=orthogonalEdgeStyle;rounded=0;orthogonalLoop=1;jettySize=auto;html=1;" edge="1" parent="1" source="etY6F__iKvZbwLbChWvs-24">
          <mxGeometry relative="1" as="geometry">
            <mxPoint x="259.9999999999998" y="423" as="targetPoint" />
            <Array as="points">
              <mxPoint x="352" y="423" />
              <mxPoint x="352" y="423" />
            </Array>
          </mxGeometry>
        </mxCell>
        <mxCell id="etY6F__iKvZbwLbChWvs-42" value="提示用户重新填写" style="edgeLabel;html=1;align=center;verticalAlign=middle;resizable=0;points=[];" vertex="1" connectable="0" parent="etY6F__iKvZbwLbChWvs-41">
          <mxGeometry x="0.1267" y="1" relative="1" as="geometry">
            <mxPoint x="10" y="-2" as="offset" />
          </mxGeometry>
        </mxCell>
        <mxCell id="etY6F__iKvZbwLbChWvs-43" style="edgeStyle=orthogonalEdgeStyle;rounded=0;orthogonalLoop=1;jettySize=auto;html=1;entryX=1.045;entryY=0.937;entryDx=0;entryDy=0;entryPerimeter=0;" edge="1" parent="1" source="etY6F__iKvZbwLbChWvs-28" target="etY6F__iKvZbwLbChWvs-24">
          <mxGeometry relative="1" as="geometry">
            <Array as="points">
              <mxPoint x="620" y="497" />
              <mxPoint x="620" y="497" />
            </Array>
          </mxGeometry>
        </mxCell>
        <mxCell id="etY6F__iKvZbwLbChWvs-44" value="返回商品上架成功信息" style="edgeLabel;html=1;align=center;verticalAlign=middle;resizable=0;points=[];" vertex="1" connectable="0" parent="etY6F__iKvZbwLbChWvs-43">
          <mxGeometry x="0.1595" y="2" relative="1" as="geometry">
            <mxPoint x="16" y="-3" as="offset" />
          </mxGeometry>
        </mxCell>
      </root>
    </mxGraphModel>
  </diagram>
</mxfile>
